<svg id="Layer_1" data-name="Layer 1" xmlns="http://www.w3.org/2000/svg" viewBox="0 0 525.74 139.66"><defs><style>.cls-1{fill:#f8ba67;}.cls-2{fill:#fed;}.cls-3{fill:#ffe3bd;}.cls-4{fill:#d9ac71;}.cls-5{font-size:21.25px;fill:#333;font-family:Poppins-Regular, Poppins;}.cls-6{font-size:51px;fill:#231f20;font-family:Poppins-SemiBold, Poppins;font-weight:600;}</style></defs><path class="cls-1" d="M90.65,241.05a5.27,5.27,0,0,1,2,.41L102.56,229l-11.85-8L78.84,228.9l9.77,12.54A5.49,5.49,0,0,1,90.65,241.05Z" transform="translate(-27.01 -220.98)"/><path class="cls-2" d="M76.88,261.42l10-12.59a4.39,4.39,0,0,1,0-6.23L77.1,230.06,65.2,238l8.07,23.24a5.78,5.78,0,0,1,1.57-.22A5.53,5.53,0,0,1,76.88,261.42Z" transform="translate(-27.01 -220.98)"/><path class="cls-3" d="M95.69,245.74a4.45,4.45,0,0,1-1.3,3.11l9.86,12.66a5.44,5.44,0,0,1,2-.39,5.37,5.37,0,0,1,1.57.24l8.24-23.19-11.8-8-9.87,12.45A4.45,4.45,0,0,1,95.69,245.74Z" transform="translate(-27.01 -220.98)"/><path class="cls-4" d="M92.65,250a5.38,5.38,0,0,1-4.07,0l-10,12.6a4.4,4.4,0,0,1,1.28,3.11l21.33.07a4.46,4.46,0,0,1,1.3-3.11Z" transform="translate(-27.01 -220.98)"/><path class="cls-1" d="M45.48,265.69a5,5,0,0,1,1.39-1.49l-6.33-14.4-13.19,5.81,1.23,13.79,16.23-1.83A4.84,4.84,0,0,1,45.48,265.69Z" transform="translate(-27.01 -220.98)"/><path class="cls-2" d="M57,287.3l-6.41-14.57a4.94,4.94,0,0,1-3.46-.5A4.64,4.64,0,0,1,45,269.59l-16.23,1.83L30,285.27l25.07,4.93a5.25,5.25,0,0,1,.58-1.42A4.93,4.93,0,0,1,57,287.3Z" transform="translate(-27.01 -220.98)"/><path class="cls-3" d="M52.25,263.86a4.6,4.6,0,0,1,2.16,2.63l16.38-1.84a4.84,4.84,0,0,1,.67-1.88,4.75,4.75,0,0,1,1-1.18L55.59,243.16,42.46,249l6.34,14.41A5,5,0,0,1,52.25,263.86Z" transform="translate(-27.01 -220.98)"/><path class="cls-4" d="M54.59,268.51a4.81,4.81,0,0,1-.66,1.89,5,5,0,0,1-1.38,1.48L59,286.45a5,5,0,0,1,3.46.5l10.72-17.64A4.66,4.66,0,0,1,71,266.67Z" transform="translate(-27.01 -220.98)"/><path class="cls-1" d="M45.19,315.46a4.73,4.73,0,0,1-.65-1.9l-16.2-1.95L27,325.44l13.09,5.88L46.56,317A5,5,0,0,1,45.19,315.46Z" transform="translate(-27.01 -220.98)"/><path class="cls-2" d="M70.51,316.69l-16.38-2A4.64,4.64,0,0,1,52,317.34a5,5,0,0,1-3.47.47L42,332.18l13.13,5.9,17-18.31a5.18,5.18,0,0,1-1-1.19A4.84,4.84,0,0,1,70.51,316.69Z" transform="translate(-27.01 -220.98)"/><path class="cls-3" d="M46.92,308.93a4.94,4.94,0,0,1,3.46-.48L56.9,294a5,5,0,0,1-1.37-1.49A4.78,4.78,0,0,1,55,291l-25.11,4.77-1.33,13.78,16.21,2A4.56,4.56,0,0,1,46.92,308.93Z" transform="translate(-27.01 -220.98)"/><path class="cls-4" d="M52.3,309.31a4.94,4.94,0,0,1,1.37,1.5,4.81,4.81,0,0,1,.66,1.89l16.38,2a4.58,4.58,0,0,1,2.18-2.62l-10.6-17.71a5,5,0,0,1-3.47.47Z" transform="translate(-27.01 -220.98)"/><path class="cls-1" d="M90.07,340.58a5.27,5.27,0,0,1-2-.41l-9.87,12.45,11.85,8,11.87-7.92-9.77-12.54A5.49,5.49,0,0,1,90.07,340.58Z" transform="translate(-27.01 -220.98)"/><path class="cls-2" d="M103.85,320.21l-10,12.59a4.39,4.39,0,0,1,0,6.23l9.78,12.54,11.9-7.94-8.07-23.25a5.37,5.37,0,0,1-1.57.23A5.44,5.44,0,0,1,103.85,320.21Z" transform="translate(-27.01 -220.98)"/><path class="cls-3" d="M85,335.88a4.48,4.48,0,0,1,1.3-3.11l-9.86-12.65a5.44,5.44,0,0,1-2,.39,5.73,5.73,0,0,1-1.57-.24l-8.24,23.19,11.8,8L86.3,339A4.46,4.46,0,0,1,85,335.88Z" transform="translate(-27.01 -220.98)"/><path class="cls-4" d="M88.07,331.61a5.45,5.45,0,0,1,2-.39,5.26,5.26,0,0,1,2,.41l10-12.6a4.46,4.46,0,0,1-1.28-3.11l-21.33-.07a4.46,4.46,0,0,1-1.3,3.11Z" transform="translate(-27.01 -220.98)"/><path class="cls-1" d="M135.24,315.94a5,5,0,0,1-1.39,1.49l6.33,14.4L153.37,326l-1.23-13.79-16.23,1.82A4.83,4.83,0,0,1,135.24,315.94Z" transform="translate(-27.01 -220.98)"/><path class="cls-2" d="M123.7,294.33l6.4,14.57a4.89,4.89,0,0,1,3.46.5,4.58,4.58,0,0,1,2.17,2.63L152,310.21l-1.23-13.85-25.07-4.93a5,5,0,0,1-.58,1.42A5.15,5.15,0,0,1,123.7,294.33Z" transform="translate(-27.01 -220.98)"/><path class="cls-3" d="M128.47,317.77a4.6,4.6,0,0,1-2.16-2.63L109.93,317a4.84,4.84,0,0,1-.67,1.88,4.75,4.75,0,0,1-1,1.18l16.87,18.43,13.13-5.79-6.34-14.41A5,5,0,0,1,128.47,317.77Z" transform="translate(-27.01 -220.98)"/><path class="cls-4" d="M126.13,313.12a4.81,4.81,0,0,1,.66-1.89,5,5,0,0,1,1.38-1.48l-6.4-14.57a5,5,0,0,1-3.46-.5l-10.72,17.64a4.66,4.66,0,0,1,2.16,2.64Z" transform="translate(-27.01 -220.98)"/><path class="cls-1" d="M135.53,266.17a4.73,4.73,0,0,1,.65,1.9l16.2,1.95,1.33-13.83-13.09-5.88-6.46,14.37A5,5,0,0,1,135.53,266.17Z" transform="translate(-27.01 -220.98)"/><path class="cls-2" d="M110.21,264.94l16.38,2a4.65,4.65,0,0,1,2.18-2.62,5,5,0,0,1,3.47-.47l6.46-14.37-13.13-5.9-17,18.31a5,5,0,0,1,1,1.19A4.84,4.84,0,0,1,110.21,264.94Z" transform="translate(-27.01 -220.98)"/><path class="cls-3" d="M133.8,272.7a4.93,4.93,0,0,1-3.46.47l-6.52,14.51a5,5,0,0,1,1.37,1.49,5.09,5.09,0,0,1,.57,1.42l25.1-4.77L152.19,272l-16.21-2A4.56,4.56,0,0,1,133.8,272.7Z" transform="translate(-27.01 -220.98)"/><path class="cls-4" d="M128.42,272.32a5.19,5.19,0,0,1-1.37-1.5,4.79,4.79,0,0,1-.65-1.89L110,267a4.63,4.63,0,0,1-2.17,2.62l10.59,17.71a4.91,4.91,0,0,1,3.47-.47Z" transform="translate(-27.01 -220.98)"/><text class="cls-5" transform="translate(150.17 103.09) scale(0.94 1)">Interior &amp; Architectural House</text><text class="cls-6" transform="translate(145.9 69.21)">Radial Dezigns</text></svg>